<?xml version="1.0" encoding="UTF-8" standalone="no"?><!DOCTYPE svg PUBLIC "-//W3C//DTD SVG 1.1//EN" "http://www.w3.org/Graphics/SVG/1.1/DTD/svg11.dtd"><svg width="100%" height="100%" viewBox="0 0 89 70" version="1.1" xmlns="http://www.w3.org/2000/svg" xmlns:xlink="http://www.w3.org/1999/xlink" xml:space="preserve" xmlns:serif="http://www.serif.com/" style="fill-rule:evenodd;clip-rule:evenodd;stroke-linejoin:round;stroke-miterlimit:1.41421;"><path d="M57.565,48.633c-12.668,-0.931 -22.594,-8.714 -22.594,-21.561c0,-12.527 6.714,-19.881 19.999,-21.025c1.18,-0.102 1.289,1.847 -0.272,2.577c-1.029,0.482 -2.288,1.196 -3.922,2.548c-4.061,3.359 -6.599,9.541 -6.599,15.9c0,9.068 5.791,17.333 13.388,18.962c-0.001,-14.146 -0.001,-29.576 0.002,-29.918c0.041,-4.868 3.907,-9.777 10.004,-9.655c9.047,0.181 16.431,9.323 16.431,20.611c0,13.029 -9.182,20.7 -21.82,21.572l0,20.63l-4.615,0c0,0 -0.001,-9.856 -0.002,-20.641Zm18.843,-21.561c0,-6.963 -5.235,-14.632 -9.304,-15.491c-1.844,-0.389 -4.921,2.182 -4.922,4.535c0,0.359 0,15.889 0,30.07c8.006,-1.178 14.226,-9.716 14.226,-19.114Z" style="fill:#7b217c;"/><path d="M26.071,23.757c-5.948,0 -8.099,1.702 -10.371,3.634c-2.184,1.858 -3.259,5.076 -3.259,7.961c0,2.686 0.72,4.588 2.159,5.705c1.44,1.117 3.395,1.676 5.867,1.676c2.797,0 3.432,-0.495 5.523,-1.485l0.081,-17.491Zm-17.858,-13.856c1.824,-1.075 7.678,-3.606 11.92,-3.606c4.343,0 7.776,1.131 10.299,3.393c2.522,2.263 3.77,5.529 3.741,9.799l-0.212,17.646c-0.028,1.443 0.007,2.602 0.106,3.479c0.099,0.876 0.354,1.548 0.764,2.015c0.41,0.466 1.025,0.791 1.845,0.975c0.82,0.184 1.923,0.29 3.309,0.318l0.212,1.655c-1.216,0.48 -2.702,0.961 -4.459,1.442c-1.756,0.481 -2.949,0.721 -3.578,0.721c-2.772,0 -4.672,-1.414 -5.702,-4.242c-4.001,2.856 -7.774,4.284 -11.318,4.284c-3.973,0 -5.357,-0.968 -7.772,-2.905c-2.415,-1.937 -3.623,-4.673 -3.623,-8.208c0,-4.355 2.161,-9.656 5.833,-12.344c3.721,-2.724 8.179,-4.002 16.493,-4.002c0,0 -0.732,-5.203 -2.373,-6.73c-1.642,-1.527 -4.159,-2.291 -7.553,-2.291c-2.573,0 -5.634,1.676 -6.956,1.443c-0.987,-0.174 -1.839,-2.334 -0.976,-2.842Z" style="fill:#7b217c;fill-rule:nonzero;"/></svg>