<?xml version="1.0" encoding="UTF-8" standalone="no"?><!DOCTYPE svg PUBLIC "-//W3C//DTD SVG 1.1//EN" "http://www.w3.org/Graphics/SVG/1.1/DTD/svg11.dtd"><svg width="100%" height="100%" viewBox="0 0 416 90" version="1.1" xmlns="http://www.w3.org/2000/svg" xmlns:xlink="http://www.w3.org/1999/xlink" xml:space="preserve" xmlns:serif="http://www.serif.com/" style="fill-rule:evenodd;clip-rule:evenodd;stroke-linejoin:round;stroke-miterlimit:1.41421;"><g><g><path d="M73.743,66.034l0,-41.058l34.242,0c2.566,0 4.633,0.209 6.201,0.628c1.569,0.419 2.776,1.034 3.622,1.845c0.847,0.81 1.413,1.822 1.698,3.033c0.285,1.212 0.428,2.602 0.428,4.17c0,1.141 -0.099,2.148 -0.295,3.021c-0.196,0.873 -0.454,1.631 -0.775,2.272c-0.32,0.642 -0.686,1.181 -1.096,1.617c-0.41,0.437 -0.828,0.798 -1.256,1.083c-0.998,0.677 -2.138,1.06 -3.421,1.149c1.603,0.089 3.029,0.481 4.276,1.176c0.535,0.303 1.056,0.682 1.564,1.136c0.508,0.455 0.962,1.016 1.363,1.684c0.401,0.669 0.727,1.453 0.976,2.353c0.25,0.9 0.374,1.938 0.374,3.114c0,1.425 -0.067,2.731 -0.2,3.916c-0.134,1.185 -0.406,2.25 -0.816,3.194c-0.409,0.945 -0.997,1.773 -1.764,2.486c-0.766,0.713 -1.786,1.305 -3.06,1.778c-1.275,0.472 -2.834,0.824 -4.678,1.056c-1.845,0.231 -4.05,0.347 -6.616,0.347l-30.767,0Zm29.056,-4.277c1.996,0 3.725,-0.031 5.186,-0.093c1.461,-0.063 2.7,-0.196 3.716,-0.401c1.015,-0.205 1.835,-0.499 2.459,-0.882c0.623,-0.384 1.109,-0.892 1.457,-1.524c0.347,-0.633 0.583,-1.403 0.708,-2.312c0.125,-0.909 0.187,-2.005 0.187,-3.288c0,-0.998 -0.062,-1.867 -0.187,-2.606c-0.125,-0.74 -0.361,-1.364 -0.708,-1.872c-0.348,-0.507 -0.834,-0.917 -1.457,-1.229c-0.624,-0.312 -1.444,-0.557 -2.459,-0.735c-1.016,-0.178 -2.255,-0.299 -3.716,-0.361c-1.461,-0.062 -3.19,-0.094 -5.186,-0.094l-23.923,0l0,15.397l23.923,0Zm0,-19.673c1.747,0 3.252,-0.036 4.518,-0.107c1.265,-0.072 2.343,-0.205 3.234,-0.401c0.891,-0.196 1.613,-0.468 2.165,-0.816c0.553,-0.347 0.985,-0.797 1.297,-1.35c0.312,-0.552 0.521,-1.216 0.628,-1.991c0.107,-0.775 0.16,-1.697 0.16,-2.767c0,-1.14 -0.124,-2.067 -0.374,-2.78c-0.249,-0.712 -0.695,-1.26 -1.336,-1.643c-0.642,-0.384 -1.511,-0.642 -2.607,-0.776c-1.096,-0.133 -2.499,-0.2 -4.21,-0.2l-27.398,0l0,12.831l23.923,0Z" style="fill:#fff;fill-rule:nonzero;"/><rect x="130.198" y="24.976" width="5.132" height="41.058" style="fill:#fff;fill-rule:nonzero;"/><path d="M190.074,24.976l0,4.277l-20.529,0l0,36.781l-5.132,0l0,-36.781l-20.529,0l0,-4.277l46.19,0Z" style="fill:#fff;fill-rule:nonzero;"/><path d="M224.503,42.939c2.816,0 5.23,0.116 7.244,0.349c2.014,0.232 3.711,0.577 5.092,1.034c1.381,0.456 2.482,1.024 3.301,1.704c0.82,0.681 1.453,1.455 1.898,2.323c0.446,0.868 0.735,1.839 0.869,2.913c0.134,1.074 0.201,2.237 0.201,3.49c0,1.242 -0.112,2.409 -0.335,3.5c-0.222,1.092 -0.619,2.09 -1.189,2.995c-0.57,0.905 -1.346,1.712 -2.326,2.422c-0.98,0.71 -2.227,1.313 -3.742,1.81c-1.515,0.497 -3.337,0.874 -5.466,1.131c-2.13,0.258 -4.62,0.386 -7.471,0.386l-6.844,0c-2.566,0 -4.811,-0.098 -6.736,-0.294c-1.924,-0.196 -3.581,-0.494 -4.971,-0.895c-1.39,-0.401 -2.54,-0.909 -3.449,-1.524c-0.909,-0.615 -1.635,-1.336 -2.178,-2.165c-0.544,-0.829 -0.922,-1.773 -1.136,-2.833c-0.214,-1.061 -0.321,-2.232 -0.321,-3.515l5.132,0c0,1.628 0.232,2.904 0.695,3.827c0.464,0.923 1.23,1.616 2.299,2.077c1.069,0.462 2.473,0.751 4.21,0.869c1.738,0.118 3.889,0.176 6.455,0.176l6.843,0c2.994,0 5.48,-0.143 7.458,-0.43c1.978,-0.287 3.555,-0.745 4.732,-1.373c1.176,-0.628 2.004,-1.449 2.486,-2.463c0.481,-1.014 0.721,-2.247 0.721,-3.701c0,-1.453 -0.165,-2.665 -0.494,-3.634c-0.33,-0.969 -0.98,-1.74 -1.952,-2.314c-0.971,-0.574 -2.339,-0.983 -4.103,-1.225c-1.764,-0.242 -4.072,-0.363 -6.923,-0.363l-7.057,0c-3.136,0 -5.823,-0.116 -8.059,-0.348c-2.236,-0.231 -4.112,-0.566 -5.627,-1.002c-1.514,-0.437 -2.726,-0.98 -3.635,-1.631c-0.909,-0.65 -1.599,-1.394 -2.072,-2.232c-0.472,-0.837 -0.779,-1.768 -0.922,-2.793c-0.142,-1.025 -0.214,-2.134 -0.214,-3.328c0,-1.247 0.112,-2.406 0.334,-3.475c0.223,-1.069 0.637,-2.036 1.243,-2.9c0.606,-0.864 1.435,-1.635 2.486,-2.312c1.052,-0.678 2.402,-1.243 4.05,-1.698c1.648,-0.454 3.631,-0.797 5.947,-1.029c2.317,-0.232 5.044,-0.347 8.18,-0.347l5.132,0c2.566,0 4.812,0.093 6.736,0.28c1.925,0.187 3.582,0.481 4.972,0.882c1.39,0.401 2.544,0.9 3.462,1.497c0.918,0.597 1.648,1.31 2.192,2.139c0.543,0.828 0.922,1.768 1.136,2.82c0.214,1.051 0.32,2.218 0.32,3.502l-5.132,0c0,-1.604 -0.231,-2.861 -0.695,-3.769c-0.463,-0.909 -1.229,-1.591 -2.299,-2.045c-1.069,-0.455 -2.477,-0.74 -4.223,-0.856c-1.746,-0.116 -3.903,-0.173 -6.469,-0.173l-5.132,0c-3.422,0 -6.237,0.12 -8.447,0.36c-2.21,0.241 -3.956,0.646 -5.239,1.217c-1.283,0.57 -2.174,1.336 -2.673,2.298c-0.499,0.963 -0.748,2.166 -0.748,3.609c0,0.891 0.062,1.684 0.187,2.379c0.124,0.695 0.378,1.305 0.761,1.831c0.384,0.526 0.923,0.967 1.618,1.323c0.695,0.357 1.612,0.651 2.753,0.882c1.14,0.232 2.535,0.397 4.183,0.495c1.649,0.098 3.613,0.147 5.894,0.147l7.057,0Z" style="fill:#fff;fill-rule:nonzero;"/><path d="M294.43,24.976l5.132,0l0,41.058l-5.132,0l0,-18.818l-37.637,0l0,18.818l-5.132,0l0,-41.058l5.132,0l0,17.963l37.637,0l0,-17.963Z" style="fill:#fff;fill-rule:nonzero;"/><rect x="309.827" y="24.976" width="5.132" height="41.058" style="fill:#fff;fill-rule:nonzero;"/><path d="M325.224,66.034l0,-41.058l39.347,0l0,4.277l-34.215,0l0,13.686l32.504,0l0,4.277l-32.504,0l0,18.818l-5.132,0Z" style="fill:#fff;fill-rule:nonzero;"/><path d="M415.893,24.976l0,4.277l-20.529,0l0,36.781l-5.132,0l0,-36.781l-20.529,0l0,-4.277l46.19,0Z" style="fill:#fff;fill-rule:nonzero;"/></g><g><path d="M57.016,44.664l-21.942,-40.162l-8.468,5.467l18.905,34.695l-18.905,34.696l8.468,5.466l21.942,-40.162Z" style="fill:#fff;"/><path d="M43.966,44.664l-24.402,-44.664l-19.564,12.629l20.68,32.035l-20.68,32.035l19.564,12.63l24.402,-44.665Z" style="fill:#fff;"/></g></g><g><path d="M339.201,76.562c0,-0.931 -0.101,-1.667 -0.303,-2.21c-0.201,-0.543 -0.535,-0.954 -1,-1.234c-0.465,-0.279 -1.076,-0.457 -1.832,-0.535c-0.757,-0.077 -1.693,-0.116 -2.81,-0.116l-5.224,0c-0.993,0 -1.828,0.029 -2.507,0.087c-0.679,0.058 -1.239,0.177 -1.681,0.355c-0.442,0.178 -0.784,0.434 -1.024,0.768c-0.241,0.333 -0.415,0.776 -0.524,1.326c-0.108,0.551 -0.17,1.228 -0.186,2.03c-0.015,0.803 -0.023,1.763 -0.023,2.88c0,1.117 0.01,2.077 0.029,2.879c0.019,0.803 0.083,1.48 0.192,2.031c0.109,0.55 0.281,0.992 0.518,1.326c0.236,0.333 0.576,0.589 1.018,0.768c0.442,0.178 1.002,0.296 1.681,0.355c0.679,0.058 1.514,0.087 2.507,0.087l5.224,0c0.869,0 1.617,-0.023 2.245,-0.07c0.629,-0.047 1.164,-0.132 1.606,-0.256c0.442,-0.124 0.799,-0.295 1.07,-0.512c0.272,-0.217 0.483,-0.49 0.634,-0.82c0.151,-0.33 0.254,-0.725 0.309,-1.187c0.054,-0.461 0.081,-1.002 0.081,-1.623l2.234,0c0,0.745 -0.047,1.418 -0.14,2.019c-0.093,0.601 -0.258,1.136 -0.494,1.605c-0.237,0.47 -0.553,0.875 -0.948,1.216c-0.396,0.341 -0.896,0.623 -1.501,0.844c-0.605,0.221 -1.327,0.384 -2.164,0.488c-0.838,0.105 -1.815,0.157 -2.932,0.157l-5.224,0c-1.365,0 -2.515,-0.083 -3.449,-0.25c-0.935,-0.167 -1.705,-0.419 -2.31,-0.756c-0.605,-0.337 -1.072,-0.762 -1.402,-1.274c-0.329,-0.512 -0.57,-1.113 -0.721,-1.803c-0.151,-0.691 -0.239,-1.47 -0.262,-2.339c-0.023,-0.869 -0.035,-1.83 -0.035,-2.885c0,-1.055 0.012,-2.017 0.035,-2.885c0.023,-0.869 0.111,-1.649 0.262,-2.339c0.151,-0.69 0.392,-1.291 0.721,-1.803c0.33,-0.512 0.797,-0.937 1.402,-1.274c0.605,-0.338 1.375,-0.59 2.31,-0.756c0.934,-0.167 2.084,-0.251 3.449,-0.251l5.224,0c1.117,0 2.094,0.053 2.932,0.158c0.837,0.104 1.559,0.263 2.164,0.477c0.605,0.213 1.105,0.482 1.501,0.808c0.395,0.326 0.711,0.71 0.948,1.152c0.236,0.442 0.401,0.942 0.494,1.501c0.093,0.558 0.14,1.179 0.14,1.861l-2.234,0Z" style="fill:#80807f;fill-rule:nonzero;"/><path d="M359.317,70.605c1.365,0 2.515,0.084 3.449,0.251c0.935,0.166 1.705,0.418 2.31,0.756c0.605,0.337 1.07,0.762 1.396,1.274c0.325,0.512 0.564,1.113 0.715,1.803c0.151,0.69 0.241,1.47 0.268,2.339c0.027,0.868 0.041,1.83 0.041,2.885c0,1.055 -0.014,2.016 -0.041,2.885c-0.027,0.869 -0.117,1.648 -0.268,2.339c-0.151,0.69 -0.39,1.291 -0.715,1.803c-0.326,0.512 -0.791,0.937 -1.396,1.274c-0.605,0.337 -1.375,0.589 -2.31,0.756c-0.934,0.167 -2.084,0.25 -3.449,0.25l-6.725,0c-1.365,0 -2.515,-0.083 -3.45,-0.25c-0.934,-0.167 -1.704,-0.419 -2.309,-0.756c-0.605,-0.337 -1.072,-0.762 -1.402,-1.274c-0.329,-0.512 -0.57,-1.113 -0.721,-1.803c-0.151,-0.691 -0.239,-1.47 -0.262,-2.339c-0.023,-0.869 -0.035,-1.83 -0.035,-2.885c0,-1.055 0.012,-2.017 0.035,-2.885c0.023,-0.869 0.111,-1.649 0.262,-2.339c0.151,-0.69 0.392,-1.291 0.721,-1.803c0.33,-0.512 0.797,-0.937 1.402,-1.274c0.605,-0.338 1.375,-0.59 2.309,-0.756c0.935,-0.167 2.085,-0.251 3.45,-0.251l6.725,0Zm0,16.754c0.985,0 1.817,-0.029 2.495,-0.087c0.679,-0.059 1.239,-0.177 1.681,-0.355c0.442,-0.179 0.784,-0.435 1.024,-0.768c0.241,-0.334 0.415,-0.776 0.524,-1.326c0.108,-0.551 0.172,-1.228 0.192,-2.031c0.019,-0.802 0.029,-1.762 0.029,-2.879c0,-1.117 -0.01,-2.077 -0.029,-2.88c-0.02,-0.802 -0.084,-1.479 -0.192,-2.03c-0.109,-0.55 -0.283,-0.993 -0.524,-1.326c-0.24,-0.334 -0.58,-0.59 -1.018,-0.768c-0.438,-0.178 -0.996,-0.297 -1.675,-0.355c-0.679,-0.058 -1.515,-0.087 -2.507,-0.087l-6.725,0c-0.993,0 -1.828,0.029 -2.507,0.087c-0.679,0.058 -1.239,0.177 -1.681,0.355c-0.442,0.178 -0.784,0.434 -1.024,0.768c-0.241,0.333 -0.415,0.776 -0.524,1.326c-0.108,0.551 -0.17,1.228 -0.186,2.03c-0.015,0.803 -0.023,1.763 -0.023,2.88c0,1.117 0.01,2.077 0.029,2.879c0.019,0.803 0.083,1.48 0.192,2.031c0.109,0.55 0.281,0.992 0.518,1.326c0.236,0.333 0.576,0.589 1.018,0.768c0.442,0.178 1.002,0.296 1.681,0.355c0.679,0.058 1.514,0.087 2.507,0.087l6.725,0Z" style="fill:#80807f;fill-rule:nonzero;"/><path d="M391.695,88.848l-2.234,0l0,-3.351c0,-0.543 -0.01,-1.01 -0.029,-1.402c-0.019,-0.391 -0.085,-0.727 -0.198,-1.006c-0.112,-0.279 -0.289,-0.504 -0.529,-0.675c-0.241,-0.17 -0.582,-0.302 -1.024,-0.395c-0.442,-0.093 -1.002,-0.157 -1.681,-0.192c-0.679,-0.035 -1.515,-0.053 -2.507,-0.053l-10.041,0l0,7.074l-2.233,0l0,-17.87l12.646,0c1.365,0 2.515,0.048 3.45,0.145c0.934,0.097 1.706,0.243 2.315,0.436c0.609,0.194 1.078,0.435 1.408,0.722c0.329,0.287 0.57,0.624 0.721,1.012c0.151,0.388 0.24,0.822 0.267,1.303c0.028,0.481 0.041,1.012 0.041,1.594c0,0.745 -0.052,1.398 -0.157,1.96c-0.105,0.563 -0.281,1.042 -0.529,1.437c-0.248,0.396 -0.578,0.712 -0.989,0.948c-0.411,0.237 -0.927,0.402 -1.548,0.495c0.621,0.093 1.117,0.256 1.49,0.488c0.372,0.233 0.659,0.536 0.861,0.908c0.201,0.372 0.335,0.814 0.401,1.326c0.066,0.512 0.099,1.094 0.099,1.745l0,3.351Zm-18.243,-8.935l10.413,0c0.993,0 1.829,-0.018 2.507,-0.052c0.679,-0.035 1.239,-0.099 1.681,-0.192c0.442,-0.094 0.784,-0.225 1.024,-0.396c0.241,-0.171 0.417,-0.396 0.529,-0.675c0.113,-0.279 0.179,-0.614 0.198,-1.006c0.02,-0.392 0.029,-0.859 0.029,-1.402c0,-0.504 -0.009,-0.939 -0.029,-1.303c-0.019,-0.365 -0.085,-0.671 -0.198,-0.919c-0.112,-0.248 -0.288,-0.446 -0.529,-0.594c-0.24,-0.147 -0.582,-0.261 -1.024,-0.343c-0.442,-0.081 -1.002,-0.134 -1.681,-0.157c-0.678,-0.023 -1.514,-0.035 -2.507,-0.035l-10.413,0l0,7.074Z" style="fill:#80807f;fill-rule:nonzero;"/><path d="M395.79,70.978l13.426,0c1.109,0 2.046,0.048 2.81,0.145c0.764,0.097 1.394,0.243 1.89,0.436c0.497,0.194 0.879,0.435 1.146,0.722c0.268,0.287 0.464,0.624 0.588,1.012c0.124,0.388 0.196,0.822 0.215,1.303c0.019,0.481 0.029,1.012 0.029,1.594c0,0.605 -0.013,1.163 -0.041,1.675c-0.027,0.512 -0.116,0.976 -0.267,1.391c-0.151,0.414 -0.392,0.779 -0.721,1.093c-0.33,0.314 -0.799,0.576 -1.408,0.785c-0.609,0.21 -1.381,0.369 -2.315,0.477c-0.935,0.109 -2.085,0.163 -3.45,0.163l-9.668,0l0,7.074l-2.234,0l0,-17.87Zm2.234,8.935l9.668,0c0.993,0 1.829,-0.018 2.507,-0.052c0.679,-0.035 1.239,-0.099 1.681,-0.192c0.442,-0.094 0.784,-0.225 1.024,-0.396c0.241,-0.171 0.417,-0.396 0.529,-0.675c0.113,-0.279 0.179,-0.614 0.198,-1.006c0.02,-0.392 0.029,-0.859 0.029,-1.402c0,-0.504 -0.009,-0.939 -0.029,-1.303c-0.019,-0.365 -0.085,-0.671 -0.198,-0.919c-0.112,-0.248 -0.288,-0.446 -0.529,-0.594c-0.24,-0.147 -0.582,-0.261 -1.024,-0.343c-0.442,-0.081 -1.002,-0.134 -1.681,-0.157c-0.678,-0.023 -1.514,-0.035 -2.507,-0.035l-9.668,0l0,7.074Z" style="fill:#80807f;fill-rule:nonzero;"/></g></svg>