<?xml version="1.0" encoding="UTF-8" standalone="no"?><!DOCTYPE svg PUBLIC "-//W3C//DTD SVG 1.1//EN" "http://www.w3.org/Graphics/SVG/1.1/DTD/svg11.dtd"><svg width="100%" height="100%" viewBox="0 0 460 480" version="1.1" xmlns="http://www.w3.org/2000/svg" xmlns:xlink="http://www.w3.org/1999/xlink" xml:space="preserve" xmlns:serif="http://www.serif.com/" style="fill-rule:evenodd;clip-rule:evenodd;stroke-linejoin:round;stroke-miterlimit:1.41421;"><path d="M233.319,114.646c5.516,0.013 11.03,0.109 16.542,0.307c13.453,0.482 26.888,1.544 40.238,3.274c11.195,1.451 22.331,3.372 33.348,5.833c10.39,2.322 20.677,5.123 30.776,8.495c8.401,2.805 16.675,6.003 24.729,9.691c6.2,2.84 12.276,5.969 18.121,9.486c2.539,1.528 5.034,3.13 7.465,4.825c2.11,1.47 4.173,3.009 6.162,4.639c1.476,1.21 2.912,2.469 4.283,3.795c1.157,1.118 2.269,2.284 3.301,3.518c0.754,0.901 1.466,1.839 2.099,2.829c0.511,0.799 0.974,1.636 1.328,2.517c0.267,0.665 0.474,1.361 0.547,2.075c0.031,0.3 0.027,0.599 0.026,0.901c-0.001,0.396 -0.003,0.792 -0.007,1.188c-0.007,0.793 -0.02,1.586 -0.038,2.379c-0.084,3.718 -0.285,7.432 -0.594,11.137c-0.672,8.051 -1.855,16.056 -3.461,23.973c-1.86,9.176 -4.288,18.233 -7.165,27.141c-4.603,14.25 -10.349,28.12 -16.898,41.583c-7.515,15.446 -16.091,30.369 -25.434,44.779c-5.227,8.064 -10.699,15.969 -16.385,23.715c-5.689,7.751 -11.594,15.344 -17.697,22.774c-5.819,7.085 -11.818,14.022 -17.995,20.797c-5.602,6.144 -11.348,12.155 -17.251,18.011c-4.006,3.974 -8.085,7.877 -12.243,11.693c-3.956,3.629 -7.984,7.181 -12.098,10.629c-3.535,2.963 -7.135,5.85 -10.816,8.628c-3.317,2.503 -6.702,4.921 -10.183,7.192c-2.373,1.548 -4.793,3.031 -7.279,4.394c-2.048,1.124 -4.144,2.172 -6.307,3.057c-1.477,0.604 -2.99,1.137 -4.544,1.504c-1.202,0.285 -2.441,0.474 -3.68,0.429c-0.989,-0.036 -1.971,-0.201 -2.932,-0.429c-1.27,-0.3 -2.512,-0.712 -3.729,-1.18c-1.675,-0.644 -3.306,-1.399 -4.906,-2.21c-1.776,-0.901 -3.514,-1.875 -5.224,-2.895c-2.345,-1.398 -4.638,-2.882 -6.893,-4.421c-2.566,-1.75 -5.082,-3.571 -7.561,-5.441c-5.769,-4.354 -11.34,-8.97 -16.77,-13.739c-4.062,-3.569 -8.045,-7.227 -11.958,-10.958c-4.232,-4.034 -8.383,-8.153 -12.46,-12.345c-8.889,-9.14 -17.428,-18.621 -25.623,-28.389c-9.369,-11.166 -18.29,-22.711 -26.702,-34.616c-8.386,-11.869 -16.267,-24.1 -23.513,-36.7c-8.112,-14.106 -15.435,-28.683 -21.641,-43.73c-5.316,-12.89 -9.813,-26.135 -13.156,-39.676c-2.722,-11.025 -4.675,-22.25 -5.62,-33.57c-0.276,-3.31 -0.466,-6.626 -0.563,-9.946c-0.035,-1.19 -0.058,-2.38 -0.069,-3.57c-0.005,-0.555 -0.012,-1.111 -0.006,-1.666c0.002,-0.084 0.006,-0.168 0.012,-0.251c0.066,-0.746 0.293,-1.463 0.596,-2.145c0.336,-0.757 0.761,-1.473 1.226,-2.158c0.829,-1.22 1.791,-2.348 2.802,-3.42c1.222,-1.294 2.528,-2.509 3.876,-3.671c1.938,-1.671 3.967,-3.234 6.046,-4.725c2.463,-1.767 4.999,-3.431 7.581,-5.019c2.967,-1.825 5.997,-3.549 9.069,-5.192c3.228,-1.725 6.503,-3.36 9.814,-4.918c7.873,-3.703 15.947,-6.972 24.142,-9.889c9.542,-3.396 19.254,-6.311 29.071,-8.798c11.105,-2.814 22.349,-5.08 33.669,-6.836c13.853,-2.15 27.823,-3.537 41.824,-4.209c5.974,-0.286 11.954,-0.438 17.935,-0.471c0.924,-0.004 1.849,-0.005 2.773,-0.005Zm-1.381,21.702c-6.509,0.015 -13.017,0.179 -19.518,0.512c-18.361,0.938 -36.666,3.176 -54.683,6.852c-8.562,1.747 -17.058,3.819 -25.453,6.245c-7.043,2.036 -14.015,4.319 -20.883,6.883c-5.524,2.062 -10.981,4.304 -16.34,6.761c-4.544,2.083 -9.02,4.319 -13.385,6.755c-3.347,1.868 -6.633,3.853 -9.801,6.013c-1.152,0.786 -2.288,1.595 -3.4,2.436c-1.286,0.973 -2.54,1.99 -3.737,3.072l-0.057,0.052c0.162,4.622 0.531,9.237 1.077,13.83c0.965,8.132 2.489,16.195 4.452,24.144c1.954,7.918 4.344,15.726 7.077,23.408c2.916,8.194 6.223,16.247 9.841,24.156c4.606,10.07 9.716,19.908 15.217,29.518c5.946,10.389 12.35,20.514 19.124,30.382c7.087,10.324 14.58,20.37 22.425,30.13c7.557,9.401 15.442,18.541 23.646,27.384c6.647,7.163 13.504,14.134 20.599,20.855c3.117,2.954 6.282,5.859 9.499,8.704c3.195,2.826 6.441,5.593 9.752,8.283c2.426,1.971 4.887,3.9 7.391,5.772c2.278,1.702 4.591,3.357 6.954,4.94c1.917,1.284 3.868,2.522 5.869,3.674c1.592,0.917 3.217,1.785 4.902,2.52l0.077,0.033c0.72,-0.309 1.426,-0.647 2.124,-1.001c0.878,-0.445 1.742,-0.916 2.596,-1.403c1.98,-1.13 3.91,-2.346 5.807,-3.609c2.475,-1.646 4.894,-3.375 7.275,-5.154c2.504,-1.872 4.965,-3.801 7.391,-5.772c3.159,-2.566 6.26,-5.204 9.313,-7.895c3.368,-2.969 6.679,-6.004 9.939,-9.092c7.094,-6.721 13.951,-13.692 20.598,-20.855c8.204,-8.843 16.089,-17.983 23.646,-27.384c7.676,-9.549 15.014,-19.372 21.965,-29.461c6.79,-9.856 13.212,-19.968 19.178,-30.343c5.522,-9.603 10.656,-19.434 15.289,-29.497c3.423,-7.435 6.572,-14.997 9.381,-22.685c2.637,-7.214 4.974,-14.539 6.94,-21.965c2.78,-10.505 4.82,-21.223 5.837,-32.048c0.318,-3.391 0.532,-6.792 0.644,-10.196l0.003,-0.104c-0.884,-0.899 -1.819,-1.746 -2.779,-2.562c-1.03,-0.874 -2.09,-1.711 -3.17,-2.52c-2.928,-2.195 -6.001,-4.196 -9.143,-6.069c-3.83,-2.283 -7.773,-4.374 -11.785,-6.319c-5.515,-2.674 -11.163,-5.064 -16.89,-7.244c-2.176,-0.828 -4.365,-1.619 -6.564,-2.382c-4.171,-1.447 -8.381,-2.785 -12.619,-4.023c-9.243,-2.701 -18.621,-4.932 -28.074,-6.763c-9.297,-1.801 -18.668,-3.214 -28.077,-4.286c-10.737,-1.223 -21.525,-2.002 -32.325,-2.39c-4.562,-0.164 -9.127,-0.254 -13.693,-0.284c-1.15,-0.006 -2.301,-0.009 -3.452,-0.008Z" style="fill:#1675d1;fill-rule:nonzero;stroke:#1675d1;stroke-width:1px;"/><path d="M238.394,417.627c-43.345,0 -74.65,-6.747 -93.914,-20.242c-19.265,-13.495 -28.897,-35.25 -28.897,-65.265l0,-29.317l93.914,0l0,37.344c0,14.891 7.595,22.337 22.784,22.337c8.521,0 14.448,-1.571 17.783,-4.712c3.334,-3.141 5.001,-8.434 5.001,-15.88c0,-9.772 -1.852,-17.858 -5.557,-24.256c-3.705,-6.399 -8.428,-11.75 -14.171,-16.055c-5.742,-4.304 -16.022,-10.993 -30.841,-20.068l-41.122,-25.826c-31.861,-19.545 -47.791,-41.184 -47.791,-64.916c0,-25.595 9.354,-45.081 28.063,-58.46c18.709,-13.378 46.031,-20.068 81.967,-20.068c31.017,0 55.763,3.727 74.236,11.182c7.121,2.874 13.31,6.301 18.566,10.282c18.894,14.31 28.341,36.705 28.341,67.185l-97.248,0l-0.556,-20.592c0,-3.955 -1.759,-7.096 -5.279,-9.423c-3.519,-2.327 -8.428,-3.49 -14.726,-3.49c-7.41,0 -12.967,1.28 -16.671,3.839c-3.705,2.559 -5.557,6.05 -5.557,10.47c0,9.773 8.891,19.894 26.674,30.364l55.57,33.505c12.966,7.911 23.71,15.415 32.231,22.511c8.521,7.097 15.374,15.473 20.561,25.129c5.187,9.656 7.78,21.115 7.78,34.378c0,29.549 -8.614,51.944 -25.84,67.184c-17.227,15.24 -45.661,22.86 -85.301,22.86Z" style="fill:#fff;fill-rule:nonzero;"/><path d="M226.354,103.911c27.489,0.077 55.844,2.444 80.159,13.291c15.009,6.695 28.195,17.71 36.382,31.836c8.98,15.491 12.173,33.946 12.195,51.844l-0.406,2.577c-1.22,2.401 -2.877,4.553 -5.351,5.358c-0.827,0.269 -1.718,0.272 -2.577,0.408l-97.248,0c-1.698,-0.264 -3.441,-0.555 -4.825,-1.539c-2.083,-1.479 -3.028,-3.968 -3.505,-6.569c-0.186,-6.892 -0.374,-13.783 -0.558,-20.675c-0.072,-2.685 -3.468,-3.762 -6.012,-4.249c-5.516,-1.057 -11.566,-1.066 -16.491,1.262c-1.829,0.865 -3.212,2.443 -3.045,4.799c0.417,5.877 5.521,10.439 10.647,14.56c3.753,3.016 7.804,5.643 11.945,8.091l55.624,33.537c24.616,15.047 49.553,31.949 59.69,59.462c4.996,13.558 5.624,28.362 4.316,42.795c-2.361,26.062 -13.839,51.89 -36.494,66.711c-25.302,16.551 -58.035,18.963 -88.547,18.505c-38.509,-0.577 -80.171,-4.762 -105.089,-32.841c-14.365,-16.187 -19.887,-38.973 -19.914,-60.949l0,-29.322c0.273,-1.727 0.576,-3.5 1.591,-4.898c1.528,-2.103 4.085,-3.014 6.742,-3.435c0,0 94.044,0.02 94.044,0.02c-0.971,-0.608 -1.943,-1.214 -2.916,-1.82c-2.2,-1.365 -4.403,-2.723 -6.609,-4.076l-41.127,-25.829c-21.431,-13.179 -41.98,-30.615 -49.168,-54.595c-6.91,-23.048 -0.866,-50.183 13.944,-68.549c16.964,-21.036 45.776,-30.716 71.825,-33.97c10.21,-1.276 20.492,-1.75 30.778,-1.74Zm-1.582,8.333c-29.144,0.128 -59.811,4.104 -82.426,21.018c-17.9,13.388 -27.468,36.029 -26.737,59.174c0.651,20.584 14.797,38.827 31.221,51.798c5.268,4.16 10.827,7.938 16.544,11.453l41.122,25.826c18.69,11.461 40.362,21.383 47.76,42.094c2.969,8.312 3.873,17.728 2.076,25.89c-1.001,4.549 -3.844,8.882 -8.154,10.76c-6.157,2.683 -13.516,2.77 -19.701,1.809c-5.513,-0.856 -10.996,-3.607 -13.908,-8.527c-2.35,-3.97 -3.053,-8.752 -3.072,-13.392l0,-37.344l-93.914,0c0,19.883 -1.629,40.082 3.814,58.758c5.211,17.884 17.957,33.304 35.265,41.789c27.626,13.542 60.143,14.86 90.135,14.209c29.406,-0.638 60.633,-4.681 81.647,-25.356c18.585,-18.286 24.867,-47.533 22.77,-72.479c-1.735,-20.633 -13.345,-39.825 -30.058,-53.318c-9.533,-7.697 -19.757,-14.462 -30.193,-20.841l-55.57,-33.505c-9.638,-5.695 -19.57,-12.341 -24.446,-21.802c-3.321,-6.445 -3.14,-15.117 4.045,-19.497c8.708,-5.308 21.19,-4.849 29.114,-0.797c3.805,1.946 6.814,5.665 6.846,10.336l0.556,20.592l97.248,0c-0.031,-26.269 -8.128,-53.245 -30.614,-68.831c-20.035,-13.888 -45.564,-17.698 -69.754,-19.204c-7.194,-0.447 -14.395,-0.623 -21.616,-0.613Zm-7.349,187.984l0.408,2.575c0,12.542 -0.049,25.083 0.001,37.625c0.047,3.956 0.468,8.224 3.593,10.884c7.679,6.539 20.796,2.873 23.168,0.14c2.813,-3.24 2.297,-8.568 2.042,-13.116c-0.674,-12.027 -7.08,-23.374 -17.339,-30.857c-4.056,-2.959 -8.256,-5.699 -12.468,-8.419c0.198,0.389 0.396,0.779 0.595,1.168Z" style="fill:#1675d1;fill-rule:nonzero;"/><path d="M54.663,132.088l49.419,-20.647l-8.258,-19.767l-14.818,6.19l2.069,4.951l-14.834,6.197l-16.525,-39.55l4.934,-2.062l-6.198,-14.833l-24.701,10.32l6.198,14.833l4.933,-2.061l16.525,39.551l-4.934,2.061l6.19,14.817Z" style="fill:#1675d1;fill-rule:nonzero;"/><path d="M109.387,109.689l52.065,-12.56l-5.023,-20.825l-15.611,3.766l1.258,5.215l-15.628,3.77l-3.77,-15.628l20.826,-5.024l-3.77,-15.628l-20.826,5.024l-2.512,-10.413l15.629,-3.77l1.258,5.216l15.61,-3.766l-5.027,-20.843l-52.065,12.559l3.769,15.628l5.198,-1.254l10.051,41.669l-5.197,1.254l3.765,15.61Z" style="fill:#1675d1;fill-rule:nonzero;"/><path d="M200.366,56.106l-8.002,0.527l2.946,-16.287l5.056,15.76Zm-33.603,39.792l26.712,-1.759l-1.055,-16.023l-4.001,0.264l0.981,-5.441l16.042,-1.057l1.686,5.266l-4.001,0.263l1.055,16.023l26.712,-1.758l-1.055,-16.023l-5.335,0.351l-18.58,-57.844l-33.4,2.199l1.056,16.041l5.336,-0.351l-7.873,43.475l-5.335,0.351l1.055,16.023Z" style="fill:#1675d1;fill-rule:nonzero;"/><path d="M247.064,93.264l31.993,3.019l11.67,-9.658l3.018,-31.992l-26.67,-2.516l-1.51,16.005l10.683,1.008l-0.502,5.323l-5.845,4.837l-10.665,-1.006l-4.837,-5.845l3.018,-31.992l5.845,-4.837l10.665,1.006l4.837,5.845l-0.502,5.323l15.987,1.508l1.508,-15.987l-9.656,-11.688l-31.993,-3.019l-11.672,9.676l-5.031,53.32l9.659,11.67Z" style="fill:#1675d1;fill-rule:nonzero;"/><path d="M310.79,101.782l26.062,6.197l12.899,-7.942l11.153,-46.902l5.22,1.241l3.719,-15.64l-26.062,-6.198l-3.719,15.64l5.219,1.241l-8.675,36.482l-6.46,3.978l-5.22,-1.241l-3.96,-6.456l8.675,-36.482l5.202,1.237l3.719,-15.64l-26.044,-6.193l-3.719,15.64l5.201,1.237l-11.153,46.902l7.943,12.899Z" style="fill:#1675d1;fill-rule:nonzero;"/><path d="M357.535,113.452l50.062,19.033l7.613,-20.024l-15.01,-5.707l-1.907,5.015l-15.027,-5.713l5.713,-15.027l20.025,7.613l5.713,-15.027l-20.025,-7.613l3.806,-10.012l15.027,5.713l-1.906,5.014l15.01,5.707l7.62,-20.042l-50.063,-19.032l-5.713,15.027l4.998,1.9l-15.232,40.066l-4.998,-1.9l-5.706,15.009Z" style="fill:#1675d1;fill-rule:nonzero;"/></svg>