<svg xmlns="http://www.w3.org/2000/svg" xmlns:xlink="http://www.w3.org/1999/xlink" viewBox="0 0 283 200"><defs><style>.a{fill:none;}.b{clip-path:url(#a);}.c{fill:#fff;}.d{fill:#ee3e42;}.e{clip-path:url(#b);}.f{fill:#143d8c;}</style><clipPath id="a"><rect class="a" width="283" height="199.92"/></clipPath><clipPath id="b"><rect class="a" width="283" height="199.92"/></clipPath></defs><title>logo-ledcor-group</title><g class="b"><path class="c" d="M119.45,199.4a98.71,98.71,0,1,0-98.72-98.71,98.71,98.71,0,0,0,98.72,98.71"/><path class="c" d="M54.55,174.17s-4.92,9.17-2,11.86,13.87,3.35,15.66,2.91,5.14-1.79,5.14-1.79"/><path class="c" d="M217,106.61l-4,22.82s14.54-1.34,18.12-4.48,5.37-6,4.7-8.5-4.25-6.71-6.49-7.38"/><path class="d" d="M163.94,12.79c3.51,1.75,6.22,4.47,9.89,5.9,4.15,3.19,9.06,4.59,12.09,8.9,2.91,3,5.53,3.46,4,7.05-8.93.64-17.54,1.75-26.48,2.55-1.59-.48-1.91-2.71-2.87-4,0-2.55-2.39-4-4-5.74-3,.64-2.23-4-5.42-3.51-2.39-1.59-6.06-2.23-7.17-5.74-3-1.6-7.18-.48-9.89-2.87-3,1-4.15-2.55-6.86-1.75-1.75-.32-3.83-.48-4.78,1.43,1.75,3.83,7.5,2.39,10.21,6.22,2.07,1.91,4,4.62,6.38,5.9,3,3.35,6.38,7,5.9,11.64-2.87,2.23-6.7,1.91-10.21,2.39-.8-1.12-2.55-.64-3.35-1.75a11.05,11.05,0,0,0-1.12-6.86c-2.55,0-3.83-2.07-6.06-3.35-2.07,1.91-6.22,0-7,3.83-2.23,1-4.15,4.3-7,2.39-.8,0-1.44.79-2.39.48-1.28-1.91-2.87.16-4.47-1.27-1.6,0-3,2.55-4.47.64-2.23-.16-4.63,2.55-6.7.32-1.76,1.28-4.15.48-5.9-.64-2.71,1-6.38.16-7.65,3.51a7,7,0,0,0-5.74,3.83c1.28,2.87-2.55,7.18,1.91,8.45,1.76,1,1.12,3.19,1.12,4.78-3.67,1.75-1.12,6.7-4.47,8.13-17.22,7.81-32.69,20.42-48,33-2.39-4.62-2.55-11.32.16-15.95C27.43,79.13,29,73.39,34,74c2.23-.32,3-3,3.35-5.26,2.08-2.39,4.94-5.11,3.83-8.61-.64-2.08,2.55-2.55,1.43-4.31-2.07-2.71-2.87-6.7-5.9-8.77.32-2.24,2.55-4,3.51-6.06,1-1,1.91-.48,2.87-.32,1.27,1,1.27,2.87,3.19,3.19,1.28-.48,2.39.16,3.67.16,2.39-4.94,7.81-1.91,11.32-4.79,1.76-1.75,3.83,1.6,5.9-.48,2.39.16,5.42.48,6.7-1.91.32-2.71-2.39-5.74,1-7.34,1.12-.48.48-2.07.64-3.19,1.43-2.08,3.19-4.15,2.87-6.86a4.39,4.39,0,0,0,1.59-4.15c-.64-1.43-1.59-2.71-1.75-4.15,4-1.91,8.29-3.35,12.28-5.1A112.64,112.64,0,0,1,114,1.78a102.5,102.5,0,0,1,49.91,11"/></g><g class="e"><path class="d" d="M200,112.56c-.32,1.76,1.6,2.87.64,4.63,0,2.23-1,5.42,1.91,6.85,1.91,3,.16,8.14,4.78,9.41a13.08,13.08,0,0,1,3.67,1.76c-1.28,3.35-2.08,7.65-5.26,9.57-8.77,1.12-17.22-1.12-25.84-.16-1.28,0-1.43-1.59-1.28-2.71.64-5.74-3.67-9.09-6.7-13.24A8.11,8.11,0,0,0,169,122c-2.87.32-5.11-2.87-7.66,0-2.71.8-4-1.12-5.9-2.71-1.75.48-3.83-.16-5.1,1.28-5.42-.16-11,1.12-15,4.94-1.6,1.27-4.79.16-4.79,3.19-3.19,1.91.48,5.26-2.71,7.18-2.23,3.35,3.51,6.7-.48,8.93a126.86,126.86,0,0,0-15.63.16c-6.06,10-10.53,20.73-15.15,31.42-1,.48-2.08-.32-3-.64-1-1-1.6-3.19-3.35-2.87-2.08-1.28-3.19-4.15-6.06-3.67-1-1-2.87-.16-4.15-.64-3.67,1.75-8,1.12-12,1.27-1.75-.8-3.83-.64-5.58-1.75-.32-.32,0-.8,0-1.12,16.11-23.92,41.31-37.48,66.34-46.41,13.4-1.75,24.88-8,38.59-9.25,9.73-1.12,19.62-2.39,29.66-2.87,1.12,1.43,1.91,2.87,2.87,4.15"/><path class="d" d="M141,186.53c.8.64,1.12,1.91,1.75,3,0,1.91-.79,3.83.8,5.42-.48,1.28-2.07,1.12-3.19,1.6-10.37,1.28-21.53,3.83-31.9.48-1.76-2.87-3-6.38-4.63-9.57-.64-.48.32-.8.8-.8,12.28-1.11,23.92-.16,36.36-.16"/><path class="d" d="M156.29,186.94c.32,1.12-.48,2.39-1.44,3.35a6.66,6.66,0,0,1-3.83,1.43c-1.43-1.12-1.91-2.87-2.71-4.47,2.23-1,5.42-.48,8-.32"/><path class="f" d="M209.42,143.71h-.34a98.14,98.14,0,0,0,5.21-12.95l.55-.05c8-.77,16.32-1.56,21.36-8.75,2-2.59,1-5.47-.1-8.52a23.36,23.36,0,0,1-1.12-3.92c-3-10.58-1.72-21.25-.48-31.57,1-8.62,2.1-17.54.64-26.26-1.78-7.27-8-13.87-14.9-15.71-1.52-.17-3-.46-4.46-.74-2.94-.58-5.2-1.45-8.21-1h-1.66a41,41,0,0,0-5.07-.08,49.81,49.81,0,0,1-6.77-.53l-.18,0-.13-.14h0c-1.26-1.41-2.55-2.79-3.9-4.14A99.94,99.94,0,0,0,19.29,96.67l-.26.25-.15.15c-10,10-20.43,21.86-18.68,37,1.31,6.19,2.54,12,8.11,15.91a82.37,82.37,0,0,1,31.16,31.66c3.18,7.39,10.66,7.87,17.9,8.33,1.56.1,3.18.2,4.72.38a54.12,54.12,0,0,0,8.61.38c2.32,0,4.71,0,7,.19A100.29,100.29,0,0,0,161,190.8h5.16v.08h94.1l.41-.85L283,143.58ZM83.59,190l-.46-.18A96.2,96.2,0,0,1,58,175.13l-.35-.28.21-.39,1.4-2.65,0,0,0,0c.77-1.08,1.31-1.91,1.83-2.7a50.15,50.15,0,0,1,3-4.27C77.13,150.45,93.53,141,106.4,134.36c6.75-3.22,13.77-6.28,21.46-9.36,15.25-6,32-9.06,48.29-12l6.09-1.1c8.44-1.69,13.39-1.95,21.6-2.37l7-.38h.2l.16.13c.19.15.35.14.78.06a2.27,2.27,0,0,1,1.58.16l1.26.07.56,0-.06.56a96.12,96.12,0,0,1-9.91,33.23l-.15.29h-.33l-98.15-.07-23,45.93Zm140-79.78.24.06c2.6.52,8.8,2.28,10.4,7.46l0,.14,0,.14c-1.41,6.43-8.14,7.52-13.54,8.4l-1.42.23-.71.11a3.57,3.57,0,0,1-2.72-.23l-.28-.19a99.89,99.89,0,0,0,3-16.25l.31-.11c1.36-.49,3.21-.08,4.69.25m-173.2-79a97.22,97.22,0,0,1,137.49,0c.67.67,1.31,1.37,2,2.06h-.22l-1.32-.06-2.92,0a116.93,116.93,0,0,1-12.48.82c-3.13.13-6.37.28-9.71.62l-1.26.16c-3.33.53-6.75,1-10.06,1.41-5.81.76-11.82,1.55-17.49,2.78-19.56,3-37.68,10.33-55.2,17.38L76.06,57.7A189.84,189.84,0,0,0,24.84,91.42L23,93.12l-.9.85A96.51,96.51,0,0,1,50.42,31.22M67.89,186.69c-4.13.32-8.82.49-12.13-1.62l-.07,0-.06-.07c-1.19-1.45-1.07-3.84.36-6.89l.22-.47a99.61,99.61,0,0,0,13,9Zm51.27,10.49a97.14,97.14,0,0,1-34.7-6.38h69.29a96.69,96.69,0,0,1-34.58,6.38"/></g><g class="b"><path class="c" d="M146.58,54.95c.93,2.52,2.52,12.76,2.52,12.76s-8.65,2.22-11.88,2.82c-1.21-2.92-2.46-8.2-4.65-8.18s-6.85,1.17-7.09,3.06,1.52,6.37,2.42,9.67,5.94,21.79,6.93,23.52,4.49.54,6-.32,2.28-1.38,1.64-3.8-1.78-7.24-1.78-7.24l12.08-2.72s.88,4.21,1.59,7.79,2.43,10.69-.48,15.14-14.94,5.8-18,6.28-5.27.44-9-3.06S121,98.93,119.52,93.93,110.4,68.4,110,64.13s2.6-8.73,6.12-10.47c5.78-2.86,14.62-5.15,18.87-5.4,5-.3,9.87,2,11.58,6.69M192,94.19c.13,5-2.2,8.28-5.42,9.73-6.32,2.55-17.24,3.81-22.07.81-5-3.12-6.5-17.48-7.57-24.33s-3.49-19-4-23.36c-.73-5.73.38-9.36,4.52-11.75,5.16-2.09,12.26-2.63,16.91-3.22,6.43-.83,12.37,3,13.53,6.93s2.09,16.75,2.74,25.13c.48,7.89,1.32,17,1.4,20.07M179.2,89c-.4-3.48-2.68-26.09-3.39-30.71-.53-3.52-7-2.11-8-1.21s-.66,3.53-.24,7.14,2.44,17.22,2.82,20.73.83,6.56,2.57,7.09,6.55,0,6.21-3M119,107.19c4,10.36-6.79,13.59-13.07,16.13-5.25,2.28-7.42,3.27-12.8,5.81-10.31-17.24-21-35.85-30.81-53.66,8.7-5,12.7-7.21,22.46-11.85,8.19-3.9,11.76-2.34,14.48-.84a17.25,17.25,0,0,1,5.44,6.34c5,13.69,9.46,24.37,14.29,38.06m-13.66-1c-3.89-9.36-7.87-17.23-11.58-26.09a4.17,4.17,0,0,0-5.31-2.42,44.13,44.13,0,0,0-6.18,3.24c5.32,9.83,11.06,21.5,16.53,31.33,1.71-.91,8.16-2.62,6.54-6.06M51.54,168.67s9.36-13.27,15.21-19.41L57.18,140s-4.93,5.34-8.05,9.26L12.58,116a50,50,0,0,0-4.3,5.36c-1.64,2.5-4.46,6.82-4.46,6.82Zm18.4-22a155.42,155.42,0,0,1,19.45-15l-7.65-11.17s-7.19,4.39-11.52,7.61c-2-2.27-7.11-9-7.11-9A115.24,115.24,0,0,1,75.5,110.3c-1-1.39-6.85-9.87-6.85-9.87A60.55,60.55,0,0,0,62.41,104,81.9,81.9,0,0,0,56,109.19l-6.74-8.46a74,74,0,0,1,6.54-5.64c2.92-2.11,6.34-4.23,6.34-4.23L55,80.6,30.44,99.73ZM228.82,67.21c.41-3.12.46-5.94.66-14.9S222.29,42,218.57,41.73s-22.78-.13-22.78-.13l1.34,61.55,11-.52s.08-17.3.08-21.93c6.34-1.11,8.25,1.3,8.45,4.93s0,17,0,17l10.31-.16s.9-15.32.81-17.24,0-7.85-5.08-9.16c4.63-1.61,5.71-5.74,6.12-8.86M217,65.92a4.11,4.11,0,0,1-4.33,3.85c-2.82,0-4.13.06-4.13.06l.26-16.17s2.35-.08,4.67-.08,3.81,1.85,3.81,4.47-.18,6.06-.28,7.87"/><path class="c" d="M152.82,166.14h5.8l-5,8.85h-3l.71-1.43h0a6.53,6.53,0,0,1-4.74,1.76c-4.58,0-3.23-3.09-.17-8.47s6-8.51,11.29-8.51c3.2,0,4.59,1.53,2.33,5.51h-4.34a7,7,0,0,0,.84-1.91c.09-.46-.11-.71-.64-.71-1.48,0-2.31,1.19-4.83,5.63s-3,5.58-1.65,5.58c1,0,1.83-.57,3.47-3.41h-1.6Z"/><path class="c" d="M168.88,161.73h.88c1.37,0,1.61.57.86,1.89a3.47,3.47,0,0,1-3,1.93h-.9Zm-12,13.25h4.49l3.73-6.55h1.19c1.1,0,1.21.48.16,2.34l-.63,1.1a10.09,10.09,0,0,0-1.33,3.1h4.78l.12-.21c-.21-.14-.2-.32-.22-.51a8.44,8.44,0,0,1,1.08-2.27l.8-1.4c1.24-2.19,1.34-3.49-.73-3.67l0,0a7,7,0,0,0,5.16-3.88c1.43-2.51,1.16-4.34-2.26-4.34h-7.06Z"/><path class="c" d="M181,166.83c2.51-4.41,3.33-5.6,4.7-5.6s.84,1.19-1.67,5.6-3.33,5.6-4.7,5.6-.84-1.19,1.68-5.6m-4.65,0c-3.48,6.11-3.26,8.49,1.33,8.49s7.52-2.38,11-8.49,3.26-8.49-1.33-8.49-7.52,2.38-11,8.49"/><path class="c" d="M200.66,158.67,194,170.44c-.9,1.58-.63,2,.21,2s1.58-.41,2.48-2l6.7-11.78h4.49l-6.09,10.7c-2.61,4.58-5.46,6-9.22,6s-5.05-1.38-2.44-6l6.09-10.7Z"/><path class="c" d="M213.8,161.73h.85c1.14,0,1.38.65.61,2a3.31,3.31,0,0,1-2.9,2h-.85Zm-12,13.25h4.49l3.51-6.17h1.58a9.46,9.46,0,0,0,8.57-5.1c1.64-2.88,1.33-5.05-2.11-5.05h-6.75Z"/></g></svg>