<?xml version="1.0" encoding="UTF-8"?>
<!-- Generator: Adobe Illustrator 19.0.0, SVG Export Plug-In . SVG Version: 6.00 Build 0)  -->
<svg version="1.1" id="Layer_1" xmlns="http://www.w3.org/2000/svg" xmlns:xlink="http://www.w3.org/1999/xlink" x="0px" y="0px" viewBox="0 0 531.6 677.1" style="enable-background:new 0 0 531.6 677.1;" xml:space="preserve">
<style type="text/css">
	.st0{fill:#FFFFFF;}
	.st1{clip-path:url(#SVGID_2_);fill:url(#SVGID_3_);}
	.st2{clip-path:url(#SVGID_5_);fill:url(#SVGID_6_);}
	.st3{clip-path:url(#SVGID_8_);fill:url(#SVGID_9_);}
	.st4{clip-path:url(#SVGID_11_);fill:url(#SVGID_12_);}
	.st5{fill:#DC1D2E;}
	.st6{fill:#C61828;}
	.st7{fill:#A51220;}
	.st8{fill:#414042;}
	.st9{fill:#636466;}
	.st10{fill:#004E9B;}
	.st11{fill:#004185;}
	.st12{fill:#003471;}
</style>
<g>
	<g>
		<path class="st0" d="M237.6,613.3c-2.1,0-4.2-0.8-5.7-2.3l-28.1-27.7c-10.2-10.2-20.5-20.6-30.4-30.9l-4.2-4.3l-3.7-3.9l-3.8-3.9    l-3.8-4l-3.8-4l-3.8-4l-3.8-4l-3.8-4l-3.8-4.1l-3.8-4.1l-3.7-4.1l-3.7-4c-1-1.1-3.7-4.1-3.7-4.1c-1-1.1-3.6-3.9-3.6-3.9    c-1.1-1.2-3.2-3.6-3.3-3.7C67.5,437.1,37,395.6,26.4,369.3l-0.5-1.2c-0.4-0.9-0.6-1.3-1.2-3c0-0.1-0.1-0.2-0.1-0.4    c0,0-0.3-0.8-0.5-1.3c-0.1-0.3-0.2-0.5-0.2-0.8c0-0.1,0-0.1-0.1-0.2c-9.3-24.5-15.9-53.3-18.7-81.2c-3.6-36.7-0.7-71.3,8.6-102.7    c0-0.1,0.1-0.2,0.1-0.3c0,0,0.5-1.5,0.5-1.5c4.5-15.5,11.3-31.4,20.2-47.1c17.6-30.2,36.8-49.3,49.8-60.1    c12.3-10.1,24.6-17.2,33-19.2c0.3-0.1,0.7-0.2,0.9-0.5c30-27.3,64.7-31.4,82.7-31.4c3.1,0,6.1,0.1,8.9,0.3c0.1,0,0.1,0,0.2,0    c0.4,0,0.8-0.1,1.2-0.4c18.3-12.9,44.2-14.3,54.4-14.3c1.2,0,2.2,0,2.9,0c0,0,0.1,0,0.1,0c0.7,0,1.7,0,2.9,0    c10.3,0,36.2,1.4,54.4,14.3c0.3,0.2,0.8,0.4,1.2,0.4c0.1,0,0.1,0,0.2,0c2.8-0.2,5.8-0.3,8.9-0.3c18,0,52.8,4.1,82.8,31.5    c0.3,0.2,0.6,0.4,0.9,0.5c8.7,2.1,20.7,9,33,19.1c13,10.7,32.3,29.8,49.8,60c9.2,16,16,31.9,20.4,47.3c0.1,0.2,0.3,0.9,0.3,0.9    c0,0,0.2,0.7,0.3,0.8c0.2,0.7,0.4,1.5,0.6,2.3l0.5,1.7c0.2,0.6,0.3,1.1,0.5,1.7c0.3,1.1,0.6,2.2,0.8,3.3l0.2,0.8    c0.2,1,0.5,1.9,0.7,2.9c0.1,0.6,0.3,1.2,0.4,1.7l0.2,0.7c0.3,1.5,0.7,3,1,4.4c0.1,0.3,0.3,1.4,0.3,1.4c0.4,2.1,0.7,3.8,1,5.4    l0.1,0.3c2.2,12.6,3.5,25.6,3.8,38.8l0,0.1c0.1,2.1,0.1,4.2,0.1,6.1c0.2,53.6-14.3,97.2-20.5,113.4c-0.3,0.7-0.5,1.3-0.6,1.7    c-0.6,1.6-0.8,2-1.1,2.9l-0.5,1.2c-0.2,0.5-0.4,0.9-0.6,1.4c0,0-0.5,1.2-0.6,1.5c-0.1,0.2-0.4,0.8-0.5,1c-0.3,0.6-0.6,1.2-0.8,1.8    c-0.2,0.5-0.4,0.9-0.6,1.3c-0.1,0.1-0.7,1.4-0.7,1.5c-0.3,0.6-0.7,1.3-1,2l-0.4,0.7c-1.7,3.3-3.7,6.7-5.8,10.3l0,0.1    c-14.4,24-39.2,55.9-73.7,94.8c0,0-0.2,0.2-0.2,0.2c-1.3,1.4-2.6,2.9-3.9,4.3l-0.1,0.1c-1.3,1.4-2.6,2.8-3.8,4.3l-0.1,0.1    c-1.3,1.5-2.6,2.9-3.9,4.3l-0.2,0.2c-1.3,1.4-2.6,2.8-3.9,4.3l-0.2,0.2c-1.2,1.4-2.5,2.8-3.8,4.2l-0.2,0.2    c-1.3,1.4-2.6,2.8-3.9,4.2l-0.2,0.3c-1.3,1.4-2.6,2.8-3.8,4.2l-0.1,0.2c-1.3,1.4-2.6,2.8-3.9,4.2c0,0-2.8,2.9-4.1,4.3l-4.2,4.4    c-1.3,1.4-4,4.2-4,4.2C349.1,568.5,320,597,305.6,611c-1.5,1.5-3.6,2.3-5.7,2.3H237.6z"/>
		<path class="st0" d="M251.6,677.3c-2.5,0-4.6-1.6-5.3-4l-8.8-31.7c-2.7-0.4-4.7-2.8-4.7-5.5v-3.9c0-3.1,2.5-5.6,5.6-5.6h61.9    c3.1,0,5.6,2.5,5.6,5.6v3.9c0,2.8-2.1,5.2-4.8,5.6l-8.8,31.6c-0.7,2.4-2.8,4-5.3,4H251.6z"/>
		<path class="st0" d="M335.7,672.8c-12.1,0-21.5-9.4-21.5-21.4c0-11.8,9.7-21.3,21.5-21.3c11.9,0,21.5,9.6,21.5,21.3    C357.1,663.4,347.7,672.8,335.7,672.8"/>
		<path class="st0" d="M335.8,632.2c10.8,0,19.3,8.6,19.3,19.3c0,10.9-8.6,19.3-19.4,19.3c-10.8,0-19.5-8.5-19.5-19.3    C316.2,640.7,324.9,632.2,335.8,632.2L335.8,632.2z"/>
		<path class="st0" d="M32.4,360.6c0.8,2.1,0.8,2,1.5,4c8.9,22.4,32.4,54.7,61.2,89.1c34.3,41.2,75.6,84.7,107.5,116.7    c11.9,12,22.7,22.7,31.8,31.7c0,0,0.1,0.1,0.1,0.1c0.7,0.7,1.4,1.3,2,2h0.4l30.8,0.1h0.1l29.2,0.1l1.9,0    c50-48,155.5-154.2,194-217.9c2.1-3.5,3.9-6.8,5.6-10c0.2-0.3,0.3-0.7,0.5-1c0.3-0.5,0.5-1,0.8-1.6c0.2-0.4,0.4-0.9,0.7-1.3    c0.2-0.4,0.4-0.9,0.6-1.3c0.3-0.5,0.5-1.1,0.7-1.6c0.1-0.3,0.3-0.7,0.4-1c0.4-0.9,0.7-1.7,1.1-2.6c0.1-0.2,0.2-0.4,0.3-0.6    c0.3-0.7,0.4-1.1,0.6-1.5c0.4-1.1,0.6-1.9,0.5-1.9c16.5-42,31.4-114.5,10.5-182.9c0,0.1-50-135.6-245.6-135.6    C95.2,37.6,23,178.3,23,178.3l0,3.5l-0.8-1C2.3,248.2,16.5,319.2,32.4,360.6C32.4,360.6,32.4,360.6,32.4,360.6"/>
	</g>
	<g>
		<defs>
			<path id="SVGID_1_" d="M23,178.3l0,3.5l-0.8-1c-19.8,67.3-5.6,138.4,10.3,179.7c0,0,0,0,0,0.1c0.8,2.1,0.8,2,1.5,4     c8.9,22.4,32.4,54.7,61.2,89.1c34.3,41.2,75.6,84.7,107.5,116.7c11.8,12,22.7,22.7,31.8,31.6c0.7,0.7,1.5,1.4,2.2,2.1l0.4,0     l16.3,0.1c-95-206.8-53.8-489.1-41.9-557C78.9,69.3,23,178.3,23,178.3"/>
		</defs>
		<clipPath id="SVGID_2_">
			<use xlink:href="#SVGID_1_" style="overflow:visible;"/>
		</clipPath>
		
			<linearGradient id="SVGID_3_" gradientUnits="userSpaceOnUse" x1="2.1133" y1="758.168" x2="6.8798" y2="758.168" gradientTransform="matrix(-50.5341 0 0 50.5341 360.1257 -37987.5742)">
			<stop offset="0" style="stop-color:#FFFFFF"/>
			<stop offset="0.5678" style="stop-color:#FDFDFE"/>
			<stop offset="0.8386" style="stop-color:#F5F7FC"/>
			<stop offset="1" style="stop-color:#ECF0F9"/>
		</linearGradient>
		<rect x="2.3" y="47.2" class="st1" width="251" height="557"/>
	</g>
	<g>
		<defs>
			<path id="SVGID_4_" d="M283.8,604.3l16.3-0.1l0.4,0c9.6-9.3,21.2-20.8,34-33.8c31.9-32.1,73.2-75.5,107.5-116.7     c28.8-34.4,52.3-66.7,61.2-89.1c0.8-1.9,0.8-1.9,1.5-4c0,0,0,0,0-0.1c15.9-41.4,30.1-112.4,10.3-179.7l-0.8,1l0-3.5     c0,0-55.9-109-188.4-131C337.6,115.2,378.8,397.4,283.8,604.3"/>
		</defs>
		<clipPath id="SVGID_5_">
			<use xlink:href="#SVGID_4_" style="overflow:visible;"/>
		</clipPath>
		
			<linearGradient id="SVGID_6_" gradientUnits="userSpaceOnUse" x1="-1.6368" y1="758.168" x2="3.1297" y2="758.168" gradientTransform="matrix(50.5341 0 0 50.5341 366.5197 -37987.5742)">
			<stop offset="0" style="stop-color:#FFFFFF"/>
			<stop offset="0.5678" style="stop-color:#FDFDFE"/>
			<stop offset="0.8386" style="stop-color:#F5F7FC"/>
			<stop offset="1" style="stop-color:#ECF0F9"/>
		</linearGradient>
		<rect x="283.8" y="47.2" class="st2" width="251" height="557"/>
	</g>
	<g>
		<defs>
			<path id="SVGID_7_" d="M429.9,368.1c-41.4,103.2-110.8,210.3-125.5,232.6C334.8,571,382.5,523,424,475.8     c6.5-7.4,12.8-14.8,18.9-22.1c27.4-32.8,50.1-63.6,59.9-85.9c0.2-0.5,0.5-1.1,0.7-1.6c0.3-0.8,0.5-1.3,0.7-1.7     c-0.1,0.3-0.2,0.4,0.1-0.5c0,0,0.4-0.8,1.4-3.4c15.9-41.4,30.1-112.4,10.3-179.7l-0.9-2.5c0,0-28.9-56.3-94.4-96.2     C434.3,131.3,467.8,273.6,429.9,368.1"/>
		</defs>
		<clipPath id="SVGID_8_">
			<use xlink:href="#SVGID_7_" style="overflow:visible;"/>
		</clipPath>
		
			<linearGradient id="SVGID_9_" gradientUnits="userSpaceOnUse" x1="-1.6172" y1="758.0518" x2="3.1493" y2="758.0518" gradientTransform="matrix(-60.5248 12.8649 12.8649 60.5248 -9305.0791 -45545.2891)">
			<stop offset="0" style="stop-color:#ECF0F9"/>
			<stop offset="0.1614" style="stop-color:#F5F7FC"/>
			<stop offset="0.4322" style="stop-color:#FDFDFE"/>
			<stop offset="1" style="stop-color:#FFFFFF"/>
		</linearGradient>
		<polygon class="st3" points="641.2,578.3 314.3,647.8 198.9,104.5 525.7,35   "/>
	</g>
	<g>
		<defs>
			<path id="SVGID_10_" d="M22.5,178.3l-0.9,2.5C1.8,248.2,16,319.2,31.9,360.5c0,0,0,0-0.1,0.1c0.8,2.1,0.8,2,1.5,4     c8.9,22.4,32.4,54.7,61.2,89.1c9.2,11,18.8,22.2,28.7,33.3c39.1,43.6,81.9,86.6,110,114c-14.4-21.8-84.2-129.3-125.7-232.8     c-37.9-94.5-4.4-236.8,9.2-286.1C51.4,121.9,22.5,178.3,22.5,178.3"/>
		</defs>
		<clipPath id="SVGID_11_">
			<use xlink:href="#SVGID_10_" style="overflow:visible;"/>
		</clipPath>
		
			<linearGradient id="SVGID_12_" gradientUnits="userSpaceOnUse" x1="5.9491" y1="758.2899" x2="10.7156" y2="758.2899" gradientTransform="matrix(-30.8951 6.567 6.567 30.8951 -4620.2822 -23137.3184)">
			<stop offset="0" style="stop-color:#FFFFFF"/>
			<stop offset="0.5678" style="stop-color:#FDFDFE"/>
			<stop offset="0.8386" style="stop-color:#F5F7FC"/>
			<stop offset="1" style="stop-color:#ECF0F9"/>
		</linearGradient>
		<polygon class="st4" points="338.9,578.5 11.8,648 -103.7,104.5 223.3,35   "/>
	</g>
	<g>
		<path class="st5" d="M268.7,12.4c-6.1-0.2-37.3-0.4-55.6,15.1c0,0-51-8.3-91.5,30.6C112,58,72.7,80.4,41.7,133.7    c-8.4,14.7-15.1,30-19.5,45.5c6.1-8.1,29.7-40.3,79.5-35.8c3.5-2.7,34.5-36.5,99-24.8c8.8-9.2,41.2-19.1,68.1-19.4    c27,0.3,59.3,10.2,68.1,19.4c64.5-11.7,95.5,22,99,24.8c49.8-4.5,73.4,27.7,79.6,35.8c-4.4-15.5-11.2-30.7-19.6-45.5    c-31-53.3-70.3-75.7-79.9-75.6c-40.5-38.9-91.5-30.6-91.5-30.6C306,12,274.8,12.2,268.7,12.4"/>
		<path class="st6" d="M213.1,27.5c0,0-51-8.3-91.5,30.6C112,58,72.7,80.4,41.7,133.7c-8.4,14.7-15.1,30-19.5,45.5    c6.1-8.1,29.7-40.3,79.5-35.8c3.5-2.7,34.4-36.4,98.6-24.8C206.4,66.8,213.1,27.5,213.1,27.5"/>
		<path class="st7" d="M101.6,143.4C101.7,143.3,101.7,143.3,101.6,143.4c9.4-48.5,20-85.3,20-85.3C112,58,72.7,80.4,41.7,133.7    c-8.4,14.7-15.1,30-19.5,45.5C28.3,171.1,51.8,138.8,101.6,143.4"/>
		<path class="st6" d="M324.4,27.5c0,0,51-8.3,91.5,30.6c9.6-0.1,48.9,22.3,79.9,75.6c8.4,14.7,15.2,29.9,19.6,45.5    c-6.1-8.1-29.8-40.3-79.6-35.8c-3.5-2.7-34.4-36.4-98.6-24.8C331,66.8,324.4,27.5,324.4,27.5"/>
		<path class="st7" d="M435.8,143.4C435.8,143.3,435.8,143.3,435.8,143.4c-9.4-48.5-20-85.3-20-85.3c9.6-0.1,48.9,22.3,79.9,75.6    c8.4,14.7,15.2,30,19.6,45.5C509.3,171,485.6,138.8,435.8,143.4"/>
		<polygon class="st8" points="269.6,634.8 268.9,634.8 241.2,634.8 241.5,635.7 251.6,671.9 269.6,671.9   "/>
		<polygon class="st9" points="269,634.8 269.7,634.8 297.4,634.8 297.1,635.7 287,671.9 269,671.9   "/>
		<path class="st9" d="M300.3,636.3h-61.9c-0.1,0-0.1-0.1-0.1-0.1v-3.9c0-0.1,0.1-0.1,0.1-0.1h61.9c0.1,0,0.1,0.1,0.1,0.1v3.9    C300.4,636.2,300.4,636.3,300.3,636.3"/>
		<polygon class="st8" points="296.6,637.3 296.9,636.3 241.6,636.3 242,637.3   "/>
		<path class="st10" d="M439.7,333.7c-0.8,0-32.2-32.9-95-27.2c-3.5-2.1-26.7-14.4-76-17c-45.4,0.9-72.6,15-76,17    c-62.7-5.7-94.2,27.2-95,27.2c-37.7-1-63,25.4-65.3,28.5c0.8,2.1,0.8,2,1.6,4c23.6,58.7,148,185.1,203.6,238.9h31.1h31.1    c55.6-53.8,180-180.2,203.6-238.9c0.8-1.9,0.8-1.9,1.6-4C502.8,359.1,477.4,332.7,439.7,333.7"/>
		<path class="st11" d="M344.8,306.6c62.7-5.7,94.2,27.2,95,27.2c37.7-1,63,25.4,65.3,28.5c-0.8,2.1-0.8,2-1.6,4    c-23.6,58.7-148,185.1-203.6,238.9h-17.1C326,512.2,341.7,403.9,344.8,306.6L344.8,306.6z"/>
		<path class="st12" d="M439.7,333.7L439.7,333.7c37.7-1,63,25.4,65.3,28.5c-0.8,2.1-0.8,2-1.6,4c-23.6,58.7-148,185.1-203.6,238.9    c0,0,82.3-120.6,129.2-236.3C433.6,357.7,437.1,345.9,439.7,333.7"/>
		<path class="st11" d="M192.7,306.6c-62.7-5.7-94.2,27.2-95,27.2c-37.7-1-63,25.4-65.3,28.5c0.8,2.1,0.8,2,1.6,4    c23.6,58.7,148,185.1,203.6,238.9h17.1C211.4,512.2,195.8,403.9,192.7,306.6L192.7,306.6z"/>
		<path class="st12" d="M97.7,333.7L97.7,333.7c-37.7-1-63,25.4-65.3,28.5c0.8,2.1,0.8,2,1.6,4c23.6,58.7,148,185.1,203.6,238.9    c0,0-82.3-120.6-129.2-236.3C103.9,357.7,100.4,345.9,97.7,333.7"/>
		<path class="st10" d="M131.2,211.7c0-0.2,0-0.2,0-0.4c-0.3-6.8-2.6-11.9-6.8-14.6c-4.8-3.1-11.8-3.4-20.1-0.6    c-9.1,3-18.2,6.3-27.1,9.9c1.3,23.3,2.6,46.7,3.8,70c6-2.4,9-3.5,15-5.7c-0.5-9.1-0.7-13.7-1.2-22.8c3.5-1.3,5.2-1.9,8.7-3.1    c5.7,7.4,8.5,11.1,14.1,18.6c7-2.2,10.5-3.2,17.6-5.1c-5.4-7.2-10.9-14.5-16.4-21.6C126.6,230.5,131.6,221.6,131.2,211.7     M115.5,216.6c0,0,0,0.1,0,0.1c0.3,6.4-3.8,11.5-10.9,13.8c-4.2,1.4-6.3,2.2-10.6,3.7c-0.4-8.2-0.6-12.2-1-20.4    c4.1-1.5,6.2-2.2,10.3-3.6C111,207.7,115.2,210,115.5,216.6"/>
		<path class="st10" d="M356.6,175.1c-9.5,22.4-18.9,44.9-28,67.4c6.4,0.7,9.5,1.1,15.9,2c2.2-5.8,3.4-8.7,5.6-14.4    c9.9,1.5,14.8,2.4,24.7,4.3c2,6.5,3,9.8,4.9,16.3c6.4,1.4,9.7,2.1,16.1,3.7c-7.8-25.6-15.9-51.1-24.1-76.6    C365.6,176.6,362.6,176.1,356.6,175.1 M370.3,220.1c-6-1.1-9.1-1.7-15.1-2.7c3.3-8.2,4.9-12.2,8.2-20.3    C366.2,206.3,367.6,210.9,370.3,220.1"/>
		<path class="st10" d="M444.7,232.4c7.3-9,14.7-17.9,22.2-26.7c-6.8-2.7-10.2-4-17.1-6.4c-5.3,7.2-8,10.8-13.3,18.1    c-3.6-8.7-7.3-17.4-11.1-26.1c-7.1-2.1-10.7-3.2-17.8-5c6.5,13.4,12.9,26.9,19.2,40.4c-7.7,9.8-15.3,19.7-22.8,29.7    c6.9,1.8,10.3,2.8,17.1,4.8c5.6-7.9,8.4-11.8,14-19.5c3.9,9.3,7.8,18.6,11.6,27.9c6.9,2.4,10.3,3.7,17.1,6.4    C457.6,261.5,451.2,246.9,444.7,232.4"/>
		<path class="st10" d="M167,236.6c-0.2-6-0.3-9-0.4-15c9.3-1.9,18.8-3.6,28.2-5c-0.1-5.5-0.2-8.2-0.3-13.7    c-9.5,1.4-18.9,3.1-28.3,5c-0.2-5.8-0.3-8.7-0.4-14.5c10.8-2.1,21.5-4,32.3-5.6c-0.1-5.5-0.2-8.2-0.3-13.7    c-16.2,2.5-32.2,5.5-48.2,9.1c0.8,23.5,1.6,47,2.4,70.4c9.7-2.3,19.4-4.4,29.2-6.1c2.7-6,4.1-9,6.8-14.9    C179.6,234.1,175.4,234.8,167,236.6"/>
		<path class="st10" d="M300.1,169.5c-5.5,7.4-11,14.8-16.4,22.3c-5.4-7.7-10.9-15.4-16.4-23c-0.1,0-0.1,0-0.2,0    c-5.5,10.4-11,20.8-16.4,31.2c0.1,13.3,0.2,26.6,0.2,39.9c6.1-0.3,9.2-0.3,15.4-0.4c0-14.6,0-29.2-0.1-43.8    c5.7,7.2,11.3,14.5,16.8,21.8c0,0.1,0.1,0.1,0.1,0.1c0.3,0,0.4,0,0.7,0c5.6-7.2,11.3-14.3,17.1-21.4c-0.1,14.7-0.2,29.3-0.4,44    c6.2,0.3,9.3,0.5,15.5,1.1c0.3-23.6,0.6-47.1,0.9-70.7C310.2,170.1,306.8,169.9,300.1,169.5"/>
		<path class="st5" d="M214.7,242.7c12-24.8,24.3-49.5,37-74c-7.8,0.3-11.7,0.5-19.6,1.1c-12.5,25-24.7,50.1-36.5,75.4    C203.3,244.1,207.1,243.6,214.7,242.7"/>
		<path class="st9" d="M335.8,632.2c10.8,0,19.3,8.6,19.3,19.3c0,10.9-8.6,19.3-19.4,19.3c-10.8,0-19.5-8.5-19.5-19.3    C316.2,640.7,324.9,632.2,335.8,632.2L335.8,632.2z M335.7,635.2c-8.7,0-15.7,7.3-15.7,16.2c0,9.1,7.1,16.3,15.8,16.3    c8.7,0.1,15.7-7.2,15.7-16.3C351.5,642.4,344.5,635.2,335.7,635.2L335.7,635.2z M332,662.6h-3.5v-21.5c1.8-0.3,3.6-0.5,6.2-0.5    c3.3,0,5.5,0.7,6.8,1.6c1.3,0.9,2,2.4,2,4.4c0,2.8-1.9,4.6-4.3,5.2v0.2c1.9,0.3,3.2,2,3.7,5.2c0.5,3.3,1,4.6,1.4,5.3h-3.7    c-0.5-0.7-1-2.7-1.5-5.5c-0.5-2.7-1.9-3.8-4.7-3.8H332V662.6z M332,650.7h2.5c2.9,0,5.3-1,5.3-3.7c0-1.9-1.4-3.8-5.3-3.8    c-1.1,0-1.9,0.1-2.5,0.2V650.7z"/>
	</g>
</g>
</svg>